<?xml version="1.0" encoding="UTF-8"?><svg id="a" xmlns="http://www.w3.org/2000/svg" xmlns:xlink="http://www.w3.org/1999/xlink" viewBox="0 0 267.61 344.53"><defs><style>.g,.h{fill:none;}.i{clip-path:url(#c);}.j{clip-path:url(#e);}.k{clip-path:url(#d);}.l{isolation:isolate;}.h{stroke:url(#f);stroke-miterlimit:10;stroke-width:.25px;}</style><clipPath id="c"><path class="g" d="M115.36,210.22c3.6-12.6,9.9-35.4,26.6-37.7,13.6-1.9,43.6-8.5,59.5-39.2,23.1-44.7-.7-64.1-12.1-71v-.1c-.4-.2-.8-.5-1.3-.7-.5-.3-.9-.5-1.3-.7v.1c-12-6-41-15.8-66.6,27.4-17.6,29.8-7.3,58.7-1.7,71.2,6.9,15.3-9,32.8-17.8,42.5-5.1,5.6-41.1,56.7-59.5,84.2-9.1,13.6-3.2,24.7,6.6,28.9,8.7,6.1,21.3,5.3,28-9.7,13.2-30.2,37.5-87.9,39.6-95.2Zm-59.9,94.4c-4.8-2.5-5.2-5.6-3.6-10.4,1.1-3.4,5.9-7.7,9-7,3.8,.8,6.2,5.7,3.9,11.4-1.9,4.7-5.8,7.8-9.3,6Z"/></clipPath><clipPath id="d"><rect class="g" x="-32.23" y="136.78" width="300" height="103.1" transform="translate(-104.04 200.11) rotate(-61.02)"/></clipPath><clipPath id="e"><rect class="g" x="-32.23" y="136.78" width="300" height="103.1" transform="translate(-104.04 200.11) rotate(-61.02)"/></clipPath><radialGradient id="f" cx="228.83" cy="836.39" fx="228.83" fy="836.39" r="140.45" gradientTransform="translate(222.12 -472.42) rotate(28.98) scale(1 .75)" gradientUnits="userSpaceOnUse"><stop offset="0" stop-color="#eff0f3"/><stop offset=".07" stop-color="#eee9ec"/><stop offset=".17" stop-color="#ecd5d8"/><stop offset=".29" stop-color="#e9b5b7"/><stop offset=".43" stop-color="#e58889"/><stop offset=".53" stop-color="#e16162"/><stop offset=".81" stop-color="#e9b5b7"/><stop offset="1" stop-color="#eff0f3"/></radialGradient></defs><g id="b"><g><g><g class="i"><g class="k"><g class="j"><image class="l" transform="translate(144.63 32.99) rotate(28.99) scale(.47)" xlink:href="835E6E5F447F39DA.jpg"/></g></g></g><path class="h" d="M115.36,210.22c3.6-12.6,9.9-35.4,26.6-37.7,13.6-1.9,43.6-8.5,59.5-39.2,23.1-44.7-.7-64.1-12.1-71v-.1c-.4-.2-.8-.5-1.3-.7-.5-.3-.9-.5-1.3-.7v.1c-12-6-41-15.8-66.6,27.4-17.6,29.8-7.3,58.7-1.7,71.2,6.9,15.3-9,32.8-17.8,42.5-5.1,5.6-41.1,56.7-59.5,84.2-9.1,13.6-3.2,24.7,6.6,28.9,8.7,6.1,21.3,5.3,28-9.7,13.2-30.2,37.5-87.9,39.6-95.2Zm-59.9,94.4c-4.8-2.5-5.2-5.6-3.6-10.4,1.1-3.4,5.9-7.7,9-7,3.8,.8,6.2,5.7,3.9,11.4-1.9,4.7-5.8,7.8-9.3,6Z"/></g><image class="l" transform="translate(136.84) rotate(28.99) scale(.24)" xlink:href="835E6E5F447F39DE.png"/><image class="l" transform="translate(154.34 71.31) rotate(28.99) scale(.14)" xlink:href="835E6E5F447F39D9.png"/></g></g></svg>